<?xml version="1.0" encoding="UTF-8" standalone="no"?>
<!-- Created with Inkscape (http://www.inkscape.org/) -->

<svg
   xmlns:dc="http://purl.org/dc/elements/1.1/"
   xmlns:cc="http://creativecommons.org/ns#"
   xmlns:rdf="http://www.w3.org/1999/02/22-rdf-syntax-ns#"
   xmlns:svg="http://www.w3.org/2000/svg"
   xmlns="http://www.w3.org/2000/svg"
   xmlns:sodipodi="http://sodipodi.sourceforge.net/DTD/sodipodi-0.dtd"
   xmlns:inkscape="http://www.inkscape.org/namespaces/inkscape"
   version="1.1"
   id="svg47649"
   xml:space="preserve"
   width="800"
   height="800"
   viewBox="0 0 800 800"
   sodipodi:docname="Uganda-flag-sticker-publicdomainvectors.org (2).svg"
   inkscape:version="0.92.4 (5da689c313, 2019-01-14)"><metadata
     id="metadata47655"><rdf:RDF><cc:Work
         rdf:about=""><dc:format>image/svg+xml</dc:format><dc:type
           rdf:resource="http://purl.org/dc/dcmitype/StillImage" /><dc:title></dc:title></cc:Work></rdf:RDF></metadata><defs
     id="defs47653"><clipPath
       clipPathUnits="userSpaceOnUse"
       id="clipPath47665"><path
         d="M 0,600 H 600 V 0 H 0 Z"
         id="path47663"
         inkscape:connector-curvature="0" /></clipPath><linearGradient
       x1="0"
       y1="0"
       x2="1"
       y2="0"
       gradientUnits="userSpaceOnUse"
       gradientTransform="matrix(44.480667,45.640594,-45.640594,44.480667,369.68359,410.19678)"
       spreadMethod="pad"
       id="linearGradient47697"><stop
         style="stop-opacity:1;stop-color:#8b939b"
         offset="0"
         id="stop47691" /><stop
         style="stop-opacity:1;stop-color:#ffffff"
         offset="0.5"
         id="stop47693" /><stop
         style="stop-opacity:1;stop-color:#7e888f"
         offset="1"
         id="stop47695" /></linearGradient></defs><sodipodi:namedview
     pagecolor="#ffffff"
     bordercolor="#666666"
     borderopacity="1"
     objecttolerance="10"
     gridtolerance="10"
     guidetolerance="10"
     inkscape:pageopacity="0"
     inkscape:pageshadow="2"
     inkscape:window-width="797"
     inkscape:window-height="480"
     id="namedview47651"
     showgrid="false"
     inkscape:zoom="0.295"
     inkscape:cx="400"
     inkscape:cy="400"
     inkscape:window-x="0"
     inkscape:window-y="0"
     inkscape:window-maximized="0"
     inkscape:current-layer="g47657" /><g
     id="g47657"
     inkscape:groupmode="layer"
     inkscape:label="Uganda-flag-sticker-publicdomainvectors.org (2)"
     transform="matrix(1.3333333,0,0,-1.3333333,0,800)"><g
       id="g47659"><g
         id="g47661"
         clip-path="url(#clipPath47665)"><path
           d="m 301.132,565.185 c -60.598,0.864 -121.418,-22.22 -167.044,-69.043 -1.985,-2.037 -3.908,-4.112 -5.802,-6.203 H 378.36 Z"
           style="fill:#110f0d;fill-opacity:1;fill-rule:nonzero;stroke:none"
           id="path47667"
           inkscape:connector-curvature="0" /><path
           d="m 82.516,259.692 h 430.606 c 8.839,24.782 13.259,50.766 13.274,76.748 H 69.24 c 0.022,-26.003 4.45,-51.99 13.276,-76.748"
           style="fill:#110f0d;fill-opacity:1;fill-rule:nonzero;stroke:none"
           id="path47669"
           inkscape:connector-curvature="0" /><path
           d="M 128.286,489.939 C 107.484,466.966 92.19,440.827 82.387,413.19 h 374.746 l -78.773,76.749 z"
           style="fill:#f7dd07;fill-opacity:1;fill-rule:nonzero;stroke:none"
           id="path47671"
           inkscape:connector-curvature="0" /><path
           d="m 69.24,336.44 h 457.156 c 0.003,3.145 -0.043,6.289 -0.17,9.431 L 457.133,413.19 H 82.387 C 73.593,388.401 69.218,362.416 69.24,336.44"
           style="fill:#da1e25;fill-opacity:1;fill-rule:nonzero;stroke:none"
           id="path47673"
           inkscape:connector-curvature="0" /><path
           d="m 128.593,182.942 h 338.439 c 20.877,22.963 36.233,49.104 46.09,76.75 H 82.516 c 9.869,-27.693 25.237,-53.84 46.077,-76.75"
           style="fill:#f7dd07;fill-opacity:1;fill-rule:nonzero;stroke:none"
           id="path47675"
           inkscape:connector-curvature="0" /><path
           d="m 138.292,172.882 c 90.428,-88.11 235.153,-86.223 323.257,4.208 1.873,1.923 3.691,3.881 5.483,5.852 H 128.593 c 3.116,-3.425 6.339,-6.786 9.699,-10.06"
           style="fill:#da1e25;fill-opacity:1;fill-rule:nonzero;stroke:none"
           id="path47677"
           inkscape:connector-curvature="0" /><g
           id="g47679"><g
             id="g47681"><g
               id="g47687"><g
                 id="g47689"><path
                   d="m 301.201,565.066 c 2.278,-56.359 25.293,-111.991 68.893,-154.467 43.586,-42.477 99.802,-64.035 156.2,-64.843"
                   style="fill:url(#linearGradient47697);stroke:none"
                   id="path47699"
                   inkscape:connector-curvature="0" /></g></g></g></g><path
           d="m 281.595,408.201 c 39.633,0 71.761,-32.128 71.761,-71.761 0,-39.631 -32.128,-71.76 -71.761,-71.76 -39.632,0 -71.761,32.129 -71.761,71.76 0,39.633 32.129,71.761 71.761,71.761"
           style="fill:#ffffff;fill-opacity:1;fill-rule:nonzero;stroke:none"
           id="path47701"
           inkscape:connector-curvature="0" /><path
           d="m 268.949,391.401 -4.655,8.573 c 1.796,1.796 4.818,3.184 9.634,3.184 0,-0.327 -0.49,-9.39 -0.49,-9.39 z"
           style="fill:#da1e25;fill-opacity:1;fill-rule:nonzero;stroke:none"
           id="path47703"
           inkscape:connector-curvature="0" /><path
           d="m 268.949,391.401 -4.655,8.573 c 1.796,1.796 4.818,3.184 9.634,3.184 0,-0.327 -0.49,-9.39 -0.49,-9.39 z"
           style="fill:none;stroke:#110f0d;stroke-width:0.76700002;stroke-linecap:butt;stroke-linejoin:miter;stroke-miterlimit:4;stroke-dasharray:none;stroke-opacity:1"
           id="path47705"
           inkscape:connector-curvature="0" /><path
           d="m 273.438,393.686 0.653,9.472 c 0,0 9.635,0.571 14.86,-5.715 0.083,0.081 -5.142,-7.348 -5.142,-7.348 z"
           style="fill:#f7dd07;fill-opacity:1;fill-rule:nonzero;stroke:none"
           id="path47707"
           inkscape:connector-curvature="0" /><path
           d="m 273.438,393.686 0.653,9.472 c 0,0 9.635,0.571 14.86,-5.715 0.083,0.081 -5.142,-7.348 -5.142,-7.348 z"
           style="fill:none;stroke:#110f0d;stroke-width:0.76700002;stroke-linecap:butt;stroke-linejoin:miter;stroke-miterlimit:4;stroke-dasharray:none;stroke-opacity:1"
           id="path47709"
           inkscape:connector-curvature="0" /><path
           d="m 283.972,390.176 4.734,7.348 c 3.185,-3.347 4.491,-5.715 4.981,-9.308 0.082,-0.082 -7.512,-1.877 -7.512,-1.796 0,0.082 -2.123,3.675 -2.203,3.756"
           style="fill:#da1e25;fill-opacity:1;fill-rule:nonzero;stroke:none"
           id="path47711"
           inkscape:connector-curvature="0" /><path
           d="m 283.972,390.176 4.734,7.348 c 3.185,-3.347 4.491,-5.715 4.981,-9.308 0.082,-0.082 -7.512,-1.877 -7.512,-1.796 0,0.082 -2.123,3.675 -2.203,3.756 z"
           style="fill:none;stroke:#110f0d;stroke-width:0.76700002;stroke-linecap:butt;stroke-linejoin:miter;stroke-miterlimit:4;stroke-dasharray:none;stroke-opacity:1"
           id="path47713"
           inkscape:connector-curvature="0" /><path
           d="m 271.315,268.846 c 0,0 8.9,10.207 26.211,8.001 -2.613,4.246 -11.024,3.756 -11.024,3.756 0,0 -2.613,19.841 -0.572,20.82 2.042,0.981 10.695,-0.082 10.695,-0.082 1.146,0 3.104,3.103 1.553,5.062 -1.553,1.96 -6.124,9.472 -4.245,10.942 1.877,1.47 12.084,-0.817 12.084,-0.817 l -28.823,36.906 c 0,0 -2.939,13.88 2.94,20.575 7.104,5.879 6.368,12.247 6.123,12.166 -0.98,6.451 -10.778,11.105 -17.391,5.143 -3.918,-4.735 -1.308,-8.327 -1.308,-8.327 0,0 -10.286,-2.776 -10.695,-4.573 -0.408,-1.795 11.595,0.327 11.595,0.327 l -1.144,-8.246 c 0,0 -23.351,-21.228 -5.469,-39.6 0.163,0.081 0.571,0.816 0.571,0.816 0,0 6.287,-7.757 12.899,-9.471 6.207,-6.369 5.636,-5.389 5.636,-5.389 0,0 1.222,-10.042 0.081,-12.001 -1.552,0.488 -17.391,1.06 -19.761,0.163 -2.122,-0.654 -10.286,-0.246 -8.245,-13.555 1.551,3.593 2.94,6.777 2.94,6.777 0,0 -0.246,-4.817 1.714,-6.533 -0.326,5.064 1.878,8.492 1.878,8.492 0,0 0.408,-5.552 1.633,-6.368 1.225,-0.816 1.225,8.982 8.002,8.165 6.777,-0.817 11.675,-0.572 11.675,-0.572 0,0 2.287,-19.187 1.552,-20.984 -4.9,1.145 -16.575,-0.49 -17.311,-3.428 6.86,0.407 10.043,-0.407 10.043,-0.407 0,0 -5.552,-4.901 -3.837,-7.758"
           style="fill:#110f0d;fill-opacity:1;fill-rule:nonzero;stroke:none"
           id="path47715"
           inkscape:connector-curvature="0" /><path
           d="m 271.315,268.846 c 0,0 8.9,10.207 26.211,8.001 -2.613,4.246 -11.024,3.756 -11.024,3.756 0,0 -2.613,19.841 -0.572,20.82 2.042,0.981 10.695,-0.082 10.695,-0.082 1.146,0 3.104,3.103 1.553,5.062 -1.553,1.96 -6.124,9.472 -4.245,10.942 1.877,1.47 12.084,-0.817 12.084,-0.817 l -28.823,36.906 c 0,0 -2.939,13.88 2.94,20.575 7.104,5.879 6.368,12.247 6.123,12.166 -0.98,6.451 -10.778,11.105 -17.391,5.143 -3.918,-4.735 -1.308,-8.327 -1.308,-8.327 0,0 -10.286,-2.776 -10.695,-4.573 -0.408,-1.795 11.595,0.327 11.595,0.327 l -1.144,-8.246 c 0,0 -23.351,-21.228 -5.469,-39.6 0.163,0.081 0.571,0.816 0.571,0.816 0,0 6.287,-7.757 12.899,-9.471 6.207,-6.369 5.636,-5.389 5.636,-5.389 0,0 1.222,-10.042 0.081,-12.001 -1.552,0.488 -17.391,1.06 -19.761,0.163 -2.122,-0.654 -10.286,-0.246 -8.245,-13.555 1.551,3.593 2.94,6.777 2.94,6.777 0,0 -0.246,-4.817 1.714,-6.533 -0.326,5.064 1.878,8.492 1.878,8.492 0,0 0.408,-5.552 1.633,-6.368 1.225,-0.816 1.225,8.982 8.002,8.165 6.777,-0.817 11.675,-0.572 11.675,-0.572 0,0 2.287,-19.187 1.552,-20.984 -4.9,1.145 -16.575,-0.49 -17.311,-3.428 6.86,0.407 10.043,-0.407 10.043,-0.407 0,0 -5.552,-4.901 -3.837,-7.758 z"
           style="fill:none;stroke:#110f0d;stroke-width:0.76700002;stroke-linecap:butt;stroke-linejoin:miter;stroke-miterlimit:4;stroke-dasharray:none;stroke-opacity:1"
           id="path47717"
           inkscape:connector-curvature="0" /><path
           d="m 274.067,373.541 c 0,0 -16.991,-18.728 -9.661,-33.06 0.391,1.998 0.221,3.255 0.467,3.172 -0.409,0.246 2.106,-1.724 1.916,-1.34 0.052,1.035 -0.768,3.256 -0.768,3.256 0.768,-0.192 1.533,-0.383 2.299,-0.574 -0.447,0.83 -0.895,1.66 -1.341,2.49 1.086,-0.128 2.171,-0.255 3.257,-0.383 0,0 -1.15,3.066 -0.766,3.066 0.382,0 2.682,-0.191 2.682,-0.191 -4.832,8.671 -0.273,15.873 1.915,23.564"
           style="fill:#97a596;fill-opacity:1;fill-rule:nonzero;stroke:none"
           id="path47719"
           inkscape:connector-curvature="0" /><path
           d="m 274.067,373.541 c 0,0 -16.991,-18.728 -9.661,-33.06 0.391,1.998 0.221,3.255 0.467,3.172 -0.409,0.246 2.106,-1.724 1.916,-1.34 0.052,1.035 -0.768,3.256 -0.768,3.256 0.768,-0.192 1.533,-0.383 2.299,-0.574 -0.447,0.83 -0.895,1.66 -1.341,2.49 1.086,-0.128 2.171,-0.255 3.257,-0.383 0,0 -1.15,3.066 -0.766,3.066 0.382,0 2.682,-0.191 2.682,-0.191 -4.832,8.671 -0.273,15.873 1.915,23.564 z"
           style="fill:none;stroke:#97a596;stroke-width:0.76700002;stroke-linecap:butt;stroke-linejoin:miter;stroke-miterlimit:4;stroke-dasharray:none;stroke-opacity:1"
           id="path47721"
           inkscape:connector-curvature="0" /><path
           d="m 279.97,389.604 c 0,0 0.898,-6.45 -2.613,-8.329 -0.571,-0.407 -2.775,-1.142 -2.449,-2.449 0.407,-1.796 1.389,-1.47 2.777,-1.142 3.674,0.653 7.919,8.491 2.285,11.92"
           style="fill:#97a596;fill-opacity:1;fill-rule:nonzero;stroke:none"
           id="path47723"
           inkscape:connector-curvature="0" /><path
           d="m 279.97,389.604 c 0,0 0.898,-6.45 -2.613,-8.329 -0.571,-0.407 -2.775,-1.142 -2.449,-2.449 0.407,-1.796 1.389,-1.47 2.777,-1.142 3.674,0.653 7.919,8.491 2.285,11.92 z"
           style="fill:none;stroke:#97a596;stroke-width:0.76700002;stroke-linecap:butt;stroke-linejoin:miter;stroke-miterlimit:4;stroke-dasharray:none;stroke-opacity:1"
           id="path47725"
           inkscape:connector-curvature="0" /><path
           d="m 272.385,385.407 c 0.763,0 1.383,-0.618 1.383,-1.382 0,-0.762 -0.62,-1.381 -1.383,-1.381 -0.762,0 -1.38,0.619 -1.38,1.381 0,0.764 0.618,1.382 1.38,1.382"
           style="fill:#ffffff;fill-opacity:1;fill-rule:nonzero;stroke:none"
           id="path47727"
           inkscape:connector-curvature="0" /><path
           d="m 268.212,378.664 c -0.898,-0.735 -5.633,-5.634 -0.979,-7.431 4.817,1.308 3.511,2.205 4.573,3.267 0.026,2.203 -2.396,2.775 -3.594,4.164"
           style="fill:#da1e25;fill-opacity:1;fill-rule:nonzero;stroke:none"
           id="path47729"
           inkscape:connector-curvature="0" /><path
           d="m 268.212,378.664 c -0.898,-0.735 -5.633,-5.634 -0.979,-7.431 4.817,1.308 3.511,2.205 4.573,3.267 0.026,2.203 -2.396,2.775 -3.594,4.164 z"
           style="fill:none;stroke:#110f0d;stroke-width:0.76700002;stroke-linecap:butt;stroke-linejoin:miter;stroke-miterlimit:4;stroke-dasharray:none;stroke-opacity:1"
           id="path47731"
           inkscape:connector-curvature="0" /><path
           d="m 278.5,332.368 c -0.245,-1.061 -1.306,-4.981 0.164,-8.002 4.083,1.715 5.959,1.225 7.349,0.327 -3.347,2.694 -4.654,3.838 -7.513,7.675"
           style="fill:#97a596;fill-opacity:1;fill-rule:nonzero;stroke:none"
           id="path47733"
           inkscape:connector-curvature="0" /><path
           d="m 278.5,332.368 c -0.245,-1.061 -1.306,-4.981 0.164,-8.002 4.083,1.715 5.959,1.225 7.349,0.327 -3.347,2.694 -4.654,3.838 -7.513,7.675 z"
           style="fill:none;stroke:#97a596;stroke-width:0.76700002;stroke-linecap:butt;stroke-linejoin:miter;stroke-miterlimit:4;stroke-dasharray:none;stroke-opacity:1"
           id="path47735"
           inkscape:connector-curvature="0" /><path
           d="m 285.522,313.834 0.245,-9.145 c 0,0 3.184,-0.571 4.655,0 1.469,0.572 -0.083,6.369 -4.9,9.145"
           style="fill:#ffffff;fill-opacity:1;fill-rule:nonzero;stroke:none"
           id="path47737"
           inkscape:connector-curvature="0" /><path
           d="m 285.522,313.834 0.245,-9.145 c 0,0 3.184,-0.571 4.655,0 1.469,0.572 -0.083,6.369 -4.9,9.145 z"
           style="fill:none;stroke:#ffffff;stroke-width:0.76700002;stroke-linecap:butt;stroke-linejoin:miter;stroke-miterlimit:4;stroke-dasharray:none;stroke-opacity:1"
           id="path47739"
           inkscape:connector-curvature="0" /><path
           d="m 308.629,312.69 c 0,0 -5.88,14.207 -20.902,17.8 -15.024,3.593 -13.065,19.595 -11.84,20.576 0.654,1.388 1.144,3.51 5.472,1.468 4.327,-2.039 24.249,-12.083 27.107,-12.572 2.858,-0.49 0.408,-27.598 0.163,-27.272"
           style="fill:#97a596;fill-opacity:1;fill-rule:nonzero;stroke:none"
           id="path47741"
           inkscape:connector-curvature="0" /><path
           d="m 308.629,312.69 c 0,0 -5.88,14.207 -20.902,17.8 -15.024,3.593 -13.065,19.595 -11.84,20.576 0.654,1.388 1.144,3.51 5.472,1.468 4.327,-2.039 24.249,-12.083 27.107,-12.572 2.858,-0.49 0.408,-27.598 0.163,-27.272 z"
           style="fill:none;stroke:#110f0d;stroke-width:0.76700002;stroke-linecap:butt;stroke-linejoin:miter;stroke-miterlimit:4;stroke-dasharray:none;stroke-opacity:1"
           id="path47743"
           inkscape:connector-curvature="0" /><path
           d="m 294.339,330.572 c -0.243,-0.163 20.088,-12.002 13.964,-22.209 5.797,3.839 3.919,10.533 3.919,10.533 0,0 4.735,-12.33 -6.778,-18.371 1.226,-1.062 2.042,-0.816 2.042,-0.816 l -1.962,-1.96 c 0,0 -0.896,-1.47 6.861,2.287 -2.124,-1.715 -2.286,-2.94 -2.286,-2.94 0,0 0.571,-1.632 5.632,2.777 -4.081,-4.409 -4.98,-6.696 -4.98,-6.614 11.022,0.98 35.028,36.824 -7.592,47.438 2.285,-2.368 1.958,-2.041 1.958,-2.041 z"
           style="fill:#da1e25;fill-opacity:1;fill-rule:nonzero;stroke:none"
           id="path47745"
           inkscape:connector-curvature="0" /><path
           d="m 294.339,330.572 c -0.243,-0.163 20.088,-12.002 13.964,-22.209 5.797,3.839 3.919,10.533 3.919,10.533 0,0 4.735,-12.33 -6.778,-18.371 1.226,-1.062 2.042,-0.816 2.042,-0.816 l -1.962,-1.96 c 0,0 -0.896,-1.47 6.861,2.287 -2.124,-1.715 -2.286,-2.94 -2.286,-2.94 0,0 0.571,-1.632 5.632,2.777 -4.081,-4.409 -4.98,-6.696 -4.98,-6.614 11.022,0.98 35.028,36.824 -7.592,47.438 2.285,-2.368 1.958,-2.041 1.958,-2.041 z"
           style="fill:none;stroke:#110f0d;stroke-width:0.76700002;stroke-linecap:butt;stroke-linejoin:miter;stroke-miterlimit:4;stroke-dasharray:none;stroke-opacity:1"
           id="path47747"
           inkscape:connector-curvature="0" /><path
           d="m 295.239,334.083 c 2.775,-1.959 3.756,-2.612 4.082,-3.593 -2.532,0.571 -4.817,0.409 -4.817,0.409 0,0 -5.47,5.225 -6.451,5.633 -0.735,0 -4.98,2.695 -4.98,2.695 -2.122,1.061 -4.083,8.409 3.756,6.286 8.083,-3.836 9.226,-4.163 9.226,-4.163 3.213,-1.007 6.423,-2.015 9.633,-3.021 1.853,-2.068 3.702,-4.138 5.553,-6.206 0,0 -9.879,4.899 -11.103,4.981 2.694,-2.205 4.245,-5.226 4.245,-5.226 -3.129,0.9 -5.851,1.715 -9.144,2.205"
           style="fill:#ffffff;fill-opacity:1;fill-rule:nonzero;stroke:none"
           id="path47749"
           inkscape:connector-curvature="0" /><path
           d="m 295.239,334.083 c 2.775,-1.959 3.756,-2.612 4.082,-3.593 -2.532,0.571 -4.817,0.409 -4.817,0.409 0,0 -5.47,5.225 -6.451,5.633 -0.735,0 -4.98,2.695 -4.98,2.695 -2.122,1.061 -4.083,8.409 3.756,6.286 8.083,-3.836 9.226,-4.163 9.226,-4.163 3.213,-1.007 6.423,-2.015 9.633,-3.021 1.853,-2.068 3.702,-4.138 5.553,-6.206 0,0 -9.879,4.899 -11.103,4.981 2.694,-2.205 4.245,-5.226 4.245,-5.226 -3.129,0.9 -5.851,1.715 -9.144,2.205 z"
           style="fill:none;stroke:#110f0d;stroke-width:0.76700002;stroke-linecap:butt;stroke-linejoin:miter;stroke-miterlimit:4;stroke-dasharray:none;stroke-opacity:1"
           id="path47751"
           inkscape:connector-curvature="0" /><path
           d="m 256.782,377.929 c 0,0 9.471,2.286 10.614,1.959"
           style="fill:#110f0d;fill-opacity:1;fill-rule:nonzero;stroke:none"
           id="path47753"
           inkscape:connector-curvature="0" /><path
           d="m 256.782,377.929 c 0,0 9.471,2.286 10.614,1.959"
           style="fill:none;stroke:#ffffff;stroke-width:0.76700002;stroke-linecap:butt;stroke-linejoin:miter;stroke-miterlimit:4;stroke-dasharray:none;stroke-opacity:1"
           id="path47755"
           inkscape:connector-curvature="0" /></g></g></g></svg>